<?xml version="1.0" standalone="no"?>
<!DOCTYPE svg PUBLIC "-//W3C//DTD SVG 20010904//EN"
 "http://www.w3.org/TR/2001/REC-SVG-20010904/DTD/svg10.dtd">
<svg version="1.0" xmlns="http://www.w3.org/2000/svg"
 width="320.000000pt" height="130.000000pt" viewBox="0 0 320.000000 130.000000"
 preserveAspectRatio="xMidYMid meet">

<g transform="translate(0.000000,130.000000) scale(0.100000,-0.100000)"
fill="#000000" stroke="none">
<path d="M0 650 l0 -650 1600 0 1600 0 0 650 0 650 -1600 0 -1600 0 0 -650z
m633 563 c-24 -2 -62 -2 -85 0 -24 2 -5 4 42 4 47 0 66 -2 43 -4z m-20 -80
c-13 -2 -33 -2 -45 0 -13 2 -3 4 22 4 25 0 35 -2 23 -4z m-74 -7 c-2 -2 -24
-6 -49 -9 -30 -4 -38 -3 -25 3 19 8 83 14 74 6z m144 -3 c-7 -2 -21 -2 -30 0
-10 3 -4 5 12 5 17 0 24 -2 18 -5z m92 -23 c14 -5 25 -12 25 -14 0 -5 -92 24
-100 32 -6 6 41 -5 75 -18z m-366 -4 c-2 -2 -15 -9 -29 -15 -24 -11 -24 -11
-6 3 16 13 49 24 35 12z m491 -191 l0 -35 -295 0 -295 0 0 35 0 35 295 0 295
0 0 -35z m0 -250 l0 -35 -210 0 c-298 0 -310 -7 -310 -190 l0 -100 -36 0 -36
0 4 123 c3 118 4 125 32 161 52 69 81 76 334 76 l222 0 0 -35z m590 -185 c0
-5 -20 -10 -45 -10 l-45 0 0 -75 c0 -43 -4 -75 -10 -75 -6 0 -10 32 -10 75 l0
75 -45 0 c-25 0 -45 5 -45 10 0 6 40 10 100 10 60 0 100 -4 100 -10z m220 0
c0 -5 -37 -10 -82 -12 -77 -3 -83 -5 -86 -25 -3 -22 -1 -23 82 -23 51 0 86 -4
86 -10 0 -6 -35 -10 -85 -10 l-85 0 0 -30 0 -30 85 0 c50 0 85 -4 85 -10 0 -6
-40 -10 -100 -10 l-100 0 0 63 c0 96 12 107 116 107 47 0 84 -4 84 -10z m50
-65 l0 -75 85 0 c50 0 85 -4 85 -10 0 -6 -40 -10 -100 -10 l-100 0 0 85 c0 69
3 85 15 85 12 0 15 -15 15 -75z m390 65 c0 -5 -37 -10 -82 -12 -77 -3 -83 -5
-86 -25 -3 -22 -1 -23 82 -23 51 0 86 -4 86 -10 0 -6 -35 -10 -85 -10 l-85 0
0 -30 0 -30 85 0 c50 0 85 -4 85 -10 0 -6 -40 -10 -100 -10 l-100 0 0 63 c0
96 12 107 116 107 47 0 84 -4 84 -10z m220 0 c0 -5 -37 -10 -82 -12 l-83 -3 0
-60 0 -60 83 -3 c106 -4 108 -22 2 -22 -67 0 -83 3 -100 20 -25 25 -27 95 -4
128 14 20 24 22 100 22 47 0 84 -4 84 -10z m202 -7 c28 -25 25 -117 -4 -137
-34 -24 -133 -21 -158 4 -25 25 -27 95 -4 128 13 19 24 22 81 22 48 0 72 -5
85 -17z m113 -24 l37 -41 42 41 c23 22 47 41 54 41 8 0 12 -25 12 -85 0 -50
-4 -85 -10 -85 -6 0 -10 31 -10 72 l0 72 -45 -44 -45 -44 -40 39 -40 39 0 -67
c0 -53 -3 -67 -15 -67 -12 0 -15 16 -15 85 0 77 2 85 19 85 10 0 35 -19 56
-41z"/>
<path d="M2424 446 c-3 -7 -4 -35 -2 -62 l3 -49 60 -3 c67 -4 85 9 85 61 0 55
-14 67 -81 67 -41 0 -61 -4 -65 -14z"/>
</g>
</svg>
